Patient4_TMGait_0pt7_02_left_42_EMG.mot
version=1
nRows=39
nColumns=33
inDegrees=no
endheader
time	1LAddLong	2LGlutMax	3LGlutMed	4LIliopsoas	5LSemiMemb	6LBicFemLong	7LRecFem	8LVastMed	9LVastLat	10LGasMed	11LTibAnt	12lTibPost	13LPeroneusLong	14LSol	15LExtDigLong	16LFlexDigLong	17RAddLong	18RGlutMax	19RGlutMed	20RIliopsoas	21RSemiMemb	22RBicFemLong	23RRecFem	24RVastMed	25RVastLat	26RGasMed	27RTibAnt	28RTibPost	29RPeroneusLong	30RSol	31RExtDigLong	32RFlexDigLong
49.348	0.007019	0.094299	-0.045471	0.005188	0.010071	-0.001678	0.034943	0.000153	0.09613	0.10788	0.1268	0.003204	0.036926	-0.10239	-0.012207	0.008698	-0.018463	-0.43793	0.41504	0.011749	-0.16739	0.24811	0.11276	-0.052032	0.014038	0.009308	0.062866	-0.009918	0.19058	-0.061951	-0.000916	-0.013733
49.349	0.01236	0.09552	-0.062714	-0.012665	0.011902	-0.006256	0.025024	0.022125	0.095367	0.037079	0.10849	-0.002136	0.053406	-0.033875	0.26489	0.009003	-0.017548	-0.42801	-0.077972	0.013123	0.018921	0.13626	0.079651	0.040588	-0.001068	0.011749	0.22705	-0.008087	0.103	-0.19943	-0.000916	-0.00824
49.35	0.005646	0.11978	-0.12421	-0.017242	0.008698	-0.001068	0.006561	-0.000916	0.080872	-0.039825	0.050049	-0.001984	0.051117	-0.013885	-0.067749	-0.009766	-0.022125	-0.35156	-0.44403	0.013733	0.29678	0.005341	-0.027466	-0.024414	0.011139	0.009918	0.27893	0.005798	0.014496	-0.14267	-0.002136	-0.007935
49.351	0.020752	0.076141	-0.16846	-0.00885	0.00412	-0.002136	0.00061	-0.007629	0.074768	-0.089569	-0.000305	-0.00412	0.024109	-0.009918	-0.15121	-0.006866	-0.025482	-0.32196	-0.58472	-0.008087	0.25879	-0.022278	-0.19363	-0.056458	0.055695	-0.052948	0.14832	-0.011444	0.062103	-0.082855	0.00061	-0.007477
49.352	0.013885	0.078125	-0.168	-0.008545	0.003815	-0.005798	-0.005646	0.001221	0.068665	-0.14114	0.006409	-0.005493	0.041504	0.010529	-0.014038	-0.003052	-0.003357	-0.36591	-0.44418	-0.052338	0.077209	-0.019379	-0.16769	-0.069733	0.071869	-0.1622	0.11261	-0.087585	0.004272	-0.22629	-0.005035	-0.003357
49.353	0.016785	0.099792	-0.080566	0.000153	-0.00061	-0.009003	-0.001678	-0.004578	0.072327	-0.10086	-0.036774	-0.001526	0.040588	-0.006104	-0.011139	-0.008087	0.036621	-0.44815	-0.22446	-0.075226	-0.031738	-0.003052	0.10239	-0.032196	0.02655	-0.17761	0.17441	-0.18387	-0.12909	-0.49103	-0.000305	0.001221
49.354	0.015411	0.073547	-0.094757	0.002899	0.000458	-0.02533	-0.02533	0.005188	0.068207	-0.015564	-0.039368	-0.002289	-0.009308	-0.010681	-0.007935	-0.009766	0.05249	-0.39841	0.1857	-0.047607	-0.071259	-0.001068	0.27893	-0.13534	-0.054779	-0.17242	0.1947	-0.075073	-0.27847	-0.41382	0	-0.003815
49.355	0.009308	0.055847	-0.018616	-0.00473	0.006561	-0.035858	-0.015564	0.003662	0.090942	0.005798	-0.032959	-0.005035	0.020142	-0.003357	0.007782	0.009003	0.056915	-0.37811	0.092621	0.014496	-0.11749	0.023499	0.25314	-0.17181	-0.093842	-0.12711	0.079498	0.06073	-0.34592	-0.22583	-0.001678	0.010071
49.356	-0.008698	0.03067	0.034027	0.001068	0.009918	-0.018616	-0.024872	0.011749	0.096741	0.02121	-0.026855	-0.004425	0.023041	-0.024414	0.014191	0.000305	0.034332	-0.34698	0.77377	0.029755	0.014038	0.074768	0.2359	-0.14603	-0.094452	-0.019226	-0.010986	0.03067	-0.2887	0.38071	-0.002899	0.01297
49.357	-0.005188	0.03418	0.063171	0.026855	0.010071	0.009766	-0.023346	0.002747	0.066376	0.017548	-0.04364	-0.002899	-0.02121	-0.0177	0.10712	0.010529	-0.003662	-0.38345	-0.037079	0.038452	-0.11856	0.086212	0.17822	-0.16113	-0.006104	0.084839	0.010376	0.15167	-0.041046	0.55603	-0.00946	0.005951
49.358	0.001831	-0.001984	0.059052	0.027924	0.005188	0.042877	-0.023346	0.004272	0.065002	0.007477	-0.049744	-0.00351	0.015564	-0.039673	0.19531	0.002747	0.009918	-0.37613	-1.241	0.024872	-0.14862	0.037384	-0.095215	-0.32288	0.005951	0.1944	0.094147	0.16892	0.08728	-0.16708	0.000153	-0.010529
49.359	-0.002136	0.000458	0.0354	0.033264	0.008392	0.037537	-0.02243	0.004272	0.050354	-0.004272	0.022583	-0.002747	0.014496	-0.069885	0.15533	0.011902	-0.028992	-0.40253	-0.080719	-0.010681	-0.10193	0.088501	-0.28931	-0.19211	0.023651	0.070648	0.085297	0.039978	0.19302	-0.20416	-0.001221	0.000305
49.36	0.000305	-0.007172	0.023956	0.03479	-0.013428	0.010376	-0.009918	0.009918	0.052643	0.00412	0.14328	-0.002594	0.013275	-0.099335	0.12375	-0.003662	-0.062561	-0.3096	0.89188	-0.054779	0.11047	0.033417	-0.14313	-0.13214	0.058594	0.044556	0.29999	0.031891	0.049591	-0.16266	-0.006104	-0.008087
49.361	0.006104	-0.022278	0.023346	0.024109	-0.035248	-0.038605	-0.023346	0.008698	0.051575	-0.002136	0.093994	-0.014191	0.026855	-0.052338	0.03006	0.011139	-0.061035	-0.33829	0.93826	-0.087128	0.20477	0.010223	-0.088654	-0.12512	0.040894	0.069427	0.58655	-0.083618	-0.082855	0.047455	-0.002441	-0.021973
49.362	0.007935	-0.03952	-0.013733	0.020294	-0.012665	-0.05188	-0.005493	0.005493	0.042114	-0.021362	-0.005798	0.000763	0.065918	0.018005	-0.12634	0	-0.054169	-0.31845	0.048523	-0.037384	0.0914	0.063019	-0.29877	-0.1294	0.071716	0.045166	0.78064	-0.1059	-0.17853	0.18188	0.001984	-0.022125
49.363	0.005646	-0.001678	-0.02594	0.013275	-0.002899	-0.030365	-0.015411	0.006866	0.043182	-0.02243	-0.07309	-0.00946	0.082703	0.011902	-0.16312	0.006866	-0.035553	-0.20966	0.094452	-0.088196	0.13489	0.042725	-0.40802	-0.013123	0.19562	0.026245	0.81512	0.10788	-0.14954	0.16129	0.000763	-0.02182
49.364	0.004425	-0.015106	-0.026855	0.003967	0.001221	-0.040588	-0.01236	0.001373	0.035095	-0.034485	-0.041199	0.001831	0.056763	0.007324	-0.06012	-0.002441	-0.021362	-0.20844	0.29343	-0.12497	0.17731	0.021515	-0.24872	0.19287	0.19714	0.020447	0.58197	0.003052	-0.11246	0.37293	0.007935	-0.014648
49.365	0.01709	-0.007477	-0.029449	0.004272	-0.006866	-0.010223	-0.01358	-0.007324	0.051117	-0.066986	0.036774	-0.011444	0.016327	0.014954	-0.055084	0.001068	-0.010376	-0.32135	0.34393	-0.049896	0.11963	-0.00946	-0.13245	0.22553	0.18005	0.028381	0.12238	-0.001526	0.10803	-0.27786	-0.001526	-0.011597
49.366	0.002899	-0.041656	-0.027618	-0.00412	0.001373	-0.003204	-0.00061	0.019989	0.040741	-0.018311	-0.00473	-0.011292	0.036621	-0.046387	-0.076447	-0.005646	0.015869	-0.25925	0.010529	0.052643	0.03418	-0.055847	-0.093536	0.16617	0.15533	0.03479	0.11093	-0.014038	0.20462	-0.67978	0.005341	-0.001373
49.367	0.009613	-0.040131	-0.048065	0.005493	0.017853	0.005035	0.005035	0.001526	0.04776	0.033722	-0.015564	-0.00824	0.032501	-0.077972	-0.003204	0.018158	0.032501	-0.20508	-0.61188	0.10757	-0.096893	-0.10956	-0.00412	0.17899	0.10056	0.038452	-0.63049	-0.020752	0.044861	-0.61996	0.002289	0.000305
49.368	0.01236	-0.053558	-0.057068	0.011749	0.023041	0.016937	-0.022888	-0.004272	0.039368	0.049286	-0.021667	-0.00473	0.037994	-0.0737	0.040894	0.016785	0.03418	-0.21164	-0.36972	0.16937	-0.20798	-0.080414	-0.015717	0.13687	-0.044556	0.035248	-0.74799	-0.024567	-0.21194	-0.068817	-0.001221	-0.000305
49.369	0.003967	-0.05249	-0.078583	0.00946	0.018158	0.029907	-0.020142	0.002594	0.054779	0.04837	0.000153	-0.009003	0.070801	-0.045166	0.053864	0.070038	0.023041	-0.20935	0.056763	0.22308	-0.031586	-0.028229	0.003967	0.078888	-0.087128	0.014954	-1.1502	0.012207	-0.23819	0.076599	0.003204	0.001526
49.37	0.018005	-0.039063	-0.083466	-0.004883	-0.017242	0.010223	-0.032196	0.000305	0.063477	0.024872	0.045319	-0.007019	0.063019	-0.046997	0.055084	0.10346	-0.002747	-0.055237	0.18463	0.14832	0.16281	-0.054169	0.035553	0.1088	-0.029907	0.013123	-0.72723	-0.001831	0.038757	0.019836	-0.00061	0.001221
49.371	0.0177	-0.054169	-0.11505	0.003967	-0.043793	-0.009003	-0.032043	0.006409	0.062714	0.010071	0.043488	-0.008087	0.055695	-0.067749	0.066223	-0.39902	0.001221	-0.063324	0.24414	0.076599	0.17242	-0.061035	0.066376	0.019073	-0.020752	0.023193	0.030823	-0.005646	0.44083	-0.15884	0.004272	-0.002289
49.372	0.013428	-0.064087	-0.080872	0.005951	-0.099335	-0.039368	-0.016785	0.001526	0.056305	-0.01709	0.02121	-0.010529	0.037842	-0.093079	0.042725	0.077362	0.005951	-0.12909	0.14175	0.041656	0.092468	-0.001526	-0.021057	-0.15732	-0.039825	0.018463	0.30243	-0.011902	0.30914	0.019989	0.000305	0.003967
49.373	0.023651	-0.03891	-0.043945	-0.008698	-0.056305	-0.048981	-0.050201	0.001984	0.064087	-0.039673	0.01358	-0.008087	0.050354	-0.14816	0.032806	0.093689	0.015717	0.019684	0.20447	-0.041199	0.039673	-0.017853	-0.16632	-0.21011	-0.005951	0.013428	0.060272	-0.01709	0.1915	0.18845	-0.003052	0.002289
49.374	0.01297	-0.023651	0.020905	0.005951	0.072479	-0.046997	-0.061035	-0.001068	0.050049	-0.04364	0.015717	-0.013428	0.061035	-0.16953	0.043182	0.040283	0.062256	-0.020905	0.20798	-0.072174	-0.12878	-0.10269	-0.069275	-0.11246	-0.008087	-0.001068	-0.29098	-0.006561	0.047913	0.29907	0.000305	-0.007935
49.375	0.011292	-0.01709	0.012512	0.004425	0.070343	-0.034332	-0.050507	-0.000916	0.038452	-0.039063	0.014496	-0.015259	0.041199	-0.11993	0.041504	0.012512	0.032654	-0.11246	0.033722	-0.065613	-0.29862	-0.17273	-0.018616	0.11108	0.005035	-0.001984	-0.31906	-0.014648	0.068817	0.38849	0.000916	-0.010681
49.376	0.006714	-0.012817	-0.058746	0.009766	0.031891	-0.018158	-0.054169	0.005646	0.031281	-0.041199	0.00351	-0.015411	0.036621	-0.051117	0.040588	-0.007019	-0.004272	-0.1001	0.12192	-0.036163	-0.30441	-0.17395	-0.11826	0.13428	-0.0177	-0.006714	-0.072784	-0.018768	0.12711	0.22369	-0.003052	-0.015564
49.377	0.00473	-0.024567	-0.095978	0.009766	0.034943	-0.013123	-0.027618	-0.007477	0.027313	-0.050354	0.003052	-0.011292	0.042572	0.049591	0.034485	-0.002441	-0.020447	-0.23254	-0.24857	0.0354	-0.014343	-0.1149	-0.1831	0.02533	0.10742	0.003662	-0.12878	-0.012817	0.098724	0.013885	0.002441	-0.01236
49.378	0.007935	-0.038605	-0.066681	0.003662	-0.017548	-0.03006	-0.030823	-0.000305	0.034943	-0.053864	0.007172	-0.021362	0.054169	0.098877	0.042419	0.001373	0.023041	-0.21484	-0.64636	-0.066223	-0.10498	-0.10956	-0.177	-0.034637	0.36957	-0.003052	-0.24902	-0.016632	0.13794	0.097656	0.003204	-0.007782
49.379	0.001373	-0.042725	-0.000763	0.001068	0.006866	-0.065613	-0.055237	0.005646	0.050049	-0.044098	0.01358	-0.010681	0.063171	0.075684	0.075836	0.001373	0.012817	-0.30441	-0.73257	-0.12253	-0.20859	-0.088501	-0.1265	0.054016	0.4126	0.000916	-0.17548	-0.016327	0.068665	0.20157	-0.004883	-0.014343
49.38	-0.005188	-0.039978	0.048981	0.004578	0.016174	-0.043182	-0.048828	0.003815	0.046082	-0.032196	0.022278	-0.013733	0.026245	0.051575	0.080414	-0.011139	-0.021057	-0.3772	-0.63385	-0.13596	-0.20111	-0.009308	-0.13397	0.03067	0.28793	-0.002594	-0.076904	-0.015106	-0.013885	0.17502	-0.003357	-0.019531
49.381	-0.005341	-0.061951	0.028229	0.006714	0.005493	-0.043793	-0.046539	0.004272	0.045319	-0.030365	0.017548	-0.013275	0.035553	0.032654	0.041351	-0.000916	-0.047913	-0.25482	-0.4332	0.011292	-0.032806	0.062714	-0.10605	0.056	0.20874	-0.004272	-0.062561	-0.011444	-0.027618	0.17868	-0.002289	-0.016174
49.382	-0.002594	-0.079498	0.021057	-0.006714	-0.010986	-0.034027	-0.050812	0.001831	0.0383	-0.037231	0.011444	-0.016174	0.044098	0.035706	-0.013123	-0.005951	-0.035706	-0.13886	0.03479	0.17929	0.29404	0.03418	-0.065155	0.069275	0.11414	-0.005798	0.19043	-0.012054	-0.078583	0.1178	-0.00061	-0.012054
49.383	0.005341	-0.094147	0.015869	0.006866	-0.036774	-0.031128	-0.050659	-0.00061	0.047607	-0.040894	0.00824	-0.008545	0.062408	0.022125	0.036316	-0.008392	-0.035706	-0.041046	0.27252	0.24109	0.24841	-0.056152	0.044861	0.10132	-0.15915	-0.007629	0.36819	-0.010529	-0.37186	0.071259	0.000458	-0.015259
49.384	0.00351	-0.10849	-0.031586	0.010376	0.007324	0.007629	-0.06073	-0.00061	0.040894	-0.036469	-0.00412	-0.017853	0.077057	0.002747	-0.052795	0.000153	-0.012665	0.016022	0.1947	0.21454	-0.034943	-0.060272	0.073853	-0.028839	-0.41122	-0.011444	0.3746	-0.009613	-0.017548	0.005341	0.000153	-0.014496
49.385	0.011139	-0.090179	-0.04425	0.007324	0.036774	0.007935	-0.063324	0.005798	0.035095	-0.037842	-0.003967	-0.012665	0.084686	0.025635	-0.12131	-0.007172	-0.023499	0.012512	0.20248	0.074463	-0.2153	-0.11627	0.069275	-0.033417	-0.73975	-0.020599	0.030823	-0.00824	0.056763	-0.055695	-0.004883	-0.00824
49.386	0.001984	-0.060577	-0.044708	0	0.02655	0.031891	-0.054626	-0.000916	0.029907	-0.046844	0.007477	-0.016937	0.11002	0.031128	-0.10193	-0.011749	-0.02533	-0.027466	0.028687	0.022583	-0.042877	-0.083923	0.063171	-0.033875	-0.50491	-0.015259	-0.21896	-0.00824	0.11765	-0.06897	-0.001678	-0.012054
